<svg width="871" height="901" viewBox="0 0 871 901" fill="none" xmlns="http://www.w3.org/2000/svg">
<g opacity="0.5">
<path d="M387.918 393.289C371.746 383.314 363.369 371.236 370.267 353.182C393.68 292.258 468.07 241.094 454.914 174.587C448.104 140.442 415.383 110.651 368.248 87.989C145.275 -18.8742 -68.4977 28.5646 -133.436 60.6368C-199.991 93.4905 -166.408 156.356 -132.879 197.02C-91.5992 247.134 -38.9418 297.018 -34.1719 352.444C-29.1481 410.967 -0.0241317 544.128 41.9966 601.784C71.6441 642.462 146.377 698.983 222.975 705.279C299.572 711.575 376.089 669.564 434.815 643.715C493.541 617.866 733.279 735.668 761.588 696.511C799.654 643.858 719.908 579.443 662.588 538.237C604.463 496.465 536.838 459.067 463.167 425.91C435.861 413.69 406.668 404.889 387.918 393.289Z" stroke="white" stroke-opacity="0.08" stroke-width="3"/>
<path d="M-142.898 50.9962C-213.79 85.9647 -177.903 152.972 -142.277 196.279C-98.4053 249.652 -42.1177 302.8 -37.1874 361.863C-31.8821 424.197 -15.4487 552.584 29.3795 614.012C60.9656 657.402 140.396 712.285 222.113 719.001C295.144 725.003 367.86 687.941 425.394 664.753C484.678 640.877 701.922 741.816 733.747 704.883C777.676 653.74 716.877 590.501 671.723 547.076C626.447 503.474 568.61 463.826 502.214 428.292C477.605 415.137 450.855 405.128 432.833 392.763C417.348 382.268 408.559 369.997 412.393 352.449C418.237 326.01 430.376 301.251 440.697 276.676C449.548 255.718 456.9 234.803 456.982 212.709C457.044 201.996 454.776 190.926 450.231 179.17C437.707 147.233 403.211 118.393 354.434 94.9423C281.939 60.2372 210.49 38.6623 143.685 27.2731C18.5127 5.85278 -92.7165 26.2067 -142.898 50.9962Z" stroke="white" stroke-opacity="0.08" stroke-width="3"/>
<path d="M-152.515 41.3868C-227.739 78.4676 -189.698 149.601 -151.83 195.56C-105.223 252.201 -45.6041 308.583 -40.2193 371.303C-34.6329 437.444 -30.8921 561.144 16.593 626.328C50.1284 672.346 134.384 725.687 220.921 732.798C290.533 738.518 359.465 706.318 415.646 685.857C475.633 663.965 670.532 748.154 705.441 713.324C755.375 663.702 713.2 601.696 680.348 556.066C647.605 510.694 600.003 468.752 540.876 430.845C519.097 416.848 494.788 405.634 477.359 392.41C462.574 381.314 453.239 368.756 453.998 351.796C455.172 325.652 459.658 301.193 461.991 277.138C464.033 256.796 464.671 236.836 459.38 215.725C456.797 205.715 451.911 195.183 445.057 183.908C427.252 154.295 390.408 126.273 340.285 102.06C269.94 68.1296 200.464 43.7373 133.74 28.29C17.8569 1.32973 -95.4031 13.1972 -152.515 41.3868Z" stroke="white" stroke-opacity="0.08" stroke-width="3"/>
<path d="M-162.136 31.8187C-241.702 71.093 -201.495 146.268 -161.547 194.947C-112.207 254.856 -49.1242 314.565 -43.5663 380.835C-37.5519 450.794 -46.6262 569.723 3.51381 638.66C38.9971 687.305 127.928 739.096 219.575 746.626C285.625 752.053 351.057 724.813 405.901 706.995C466.579 687.165 639.182 754.463 677.306 721.825C733.387 673.733 709.658 613.025 689.123 565.028C669.047 517.898 631.523 473.651 579.671 433.288C560.572 418.44 538.85 406.032 522 392.033C507.914 380.336 498.021 367.572 495.854 351.21C492.364 325.362 489.201 301.2 483.568 277.582C478.793 257.936 472.885 238.86 462.079 218.718C457.013 209.338 449.485 199.508 440.349 188.549C417.414 161.269 378.224 134.064 326.61 109.075C258.239 76.0692 190.855 49.0375 124.116 29.1961C17.0745 -2.42195 -98.0985 0.23168 -162.136 31.8187Z" stroke="white" stroke-opacity="0.08" stroke-width="3"/>
<path d="M-171.752 22.2861C-255.648 63.673 -213.288 142.974 -171.099 194.306C-119.185 257.552 -52.6127 320.427 -46.6006 390.354C-40.3051 464.121 -62.0503 578.389 -9.09479 651.012C28.3237 702.366 122.091 752.543 218.688 760.563C281.183 765.698 343.257 743.505 396.499 728.136C458.003 710.46 608.325 760.97 649.557 730.263C712.076 683.719 706.322 624.348 698.24 573.993C690.499 525.243 663.203 478.62 618.605 435.883C602.329 420.195 583.042 406.582 566.771 391.806C553.37 379.589 542.932 366.537 537.707 350.678C529.274 325.016 518.886 301.35 505.144 278.155C493.866 259.144 481.122 240.925 464.632 221.901C457.085 213.151 446.93 203.938 435.341 193.446C407.587 168.436 365.596 142.09 312.636 116.337C246.246 84.1704 180.884 54.909 114.165 30.4306C16.0737 -5.66755 -100.632 -12.7675 -171.752 22.2861Z" stroke="white" stroke-opacity="0.08" stroke-width="3"/>
<path d="M-181.359 12.7847C-269.591 56.2886 -225.074 139.724 -180.642 193.713C-125.989 260.234 -55.9354 326.363 -49.7497 399.849C-43.1727 477.431 -77.7167 586.962 -21.9675 663.443C17.4021 717.43 115.852 766.071 217.568 774.511C276.518 779.354 335.242 762.202 386.876 749.361C449.361 733.845 577.447 767.506 621.468 738.863C690.563 693.953 702.343 635.792 706.999 583.1C711.437 532.711 694.506 483.719 657.177 438.441C643.561 421.98 626.866 407.091 611.33 391.468C598.612 378.73 587.481 365.376 579.482 350.123C566.096 324.725 548.67 301.317 526.653 278.693C508.861 260.396 489.577 243.055 467.285 224.969C457.405 216.86 444.784 208.193 430.594 198.154C398.328 175.351 353.361 150.012 298.769 123.385C234.351 92.0525 170.508 60.8504 104.161 31.3498C14.5786 -8.43565 -103.312 -25.668 -181.359 12.7847Z" stroke="white" stroke-opacity="0.08" stroke-width="3"/>
<path d="M-190.796 3.40543C-283.382 49.036 -236.687 136.543 -190.148 193.189C-132.747 263 -59.3441 332.385 -52.7025 409.553C-45.6957 490.979 -93.0417 595.803 -34.6216 676.064C6.7071 732.697 109.995 779.908 216.568 788.664C272.133 793.229 327.362 781.182 377.414 770.782C440.879 757.504 546.912 774.342 593.744 747.674C669.561 704.48 698.752 647.339 716.142 592.296C732.622 540.164 726.195 488.804 696.246 441.149C685.299 423.831 671.031 407.733 656.215 391.34C644.189 377.996 632.35 364.419 621.575 349.769C603.088 324.616 578.906 301.567 548.488 279.332C524.194 261.663 498.236 245.102 470.258 228.126C457.897 220.642 442.807 212.519 426.002 203.012C389.392 182.259 341.132 157.977 285.19 130.494C222.73 99.9877 159.913 67.0472 94.5368 32.4038C12.5324 -10.9861 -105.942 -38.5484 -190.796 3.40543Z" stroke="white" stroke-opacity="0.08" stroke-width="3"/>
<path d="M-200.345 -6.05262C-297.309 41.7926 -248.297 133.476 -199.499 192.799C-139.342 265.91 -62.4339 338.573 -55.6296 419.408C-48.3391 504.678 -108.359 604.902 -47.1138 688.965C-3.98095 748.321 104.183 793.945 215.908 803.125C267.948 807.4 319.956 800.643 368.458 792.52C433.033 781.655 516.891 781.578 566.552 756.799C649.075 715.479 695.559 659.174 725.672 601.856C754.049 547.961 758.113 494.308 735.553 444.189C727.274 426.011 715.432 408.701 701.332 391.537C689.838 377.656 677.302 363.771 663.763 349.639C640.147 324.893 609.109 301.86 570.396 280.269C539.758 263.156 507.108 247.453 473.282 231.654C458.584 224.807 441.038 217.146 421.468 208.158C380.523 189.369 328.951 166.224 271.64 137.963C211.156 108.115 148.729 73.6286 84.9431 33.6405C10.0658 -13.3957 -108.54 -51.4192 -200.345 -6.05262Z" stroke="white" stroke-opacity="0.08" stroke-width="3"/>
<path d="M476.43 234.807C389.914 202.816 229.509 148.415 75.3905 34.8119C6.87502 -15.772 -110.976 -64.2715 -209.887 -15.4997C-311.225 34.4827 -260.037 130.339 -209.124 192.333C-146.353 268.737 -65.9333 344.684 -58.6717 429.218C-50.9499 518.352 -123.784 613.889 -59.8562 701.752C-14.7556 763.766 98.28 807.888 215.019 817.479C331.759 827.071 449.354 805.048 538.872 765.707C628.402 726.283 691.757 670.692 734.893 611.117C822.345 490.157 788.781 368.709 592.293 280.82C555.306 264.262 515.961 249.418 476.43 234.807Z" stroke="white" stroke-opacity="0.08" stroke-width="3"/>
</g>
</svg>
